<?xml version="1.0" standalone="no"?>
<!DOCTYPE svg PUBLIC "-//W3C//DTD SVG 20010904//EN"
 "http://www.w3.org/TR/2001/REC-SVG-20010904/DTD/svg10.dtd">
<svg version="1.0" xmlns="http://www.w3.org/2000/svg"
 width="240.000000pt" height="240.000000pt" viewBox="0 0 240.000000 240.000000"
 preserveAspectRatio="xMidYMid meet">

<g transform="translate(0.000000,240.000000) scale(0.100000,-0.100000)"
fill="#000000" stroke="none">
<path d="M0 1200 l0 -1200 1200 0 1200 0 0 1200 0 1200 -1200 0 -1200 0 0
-1200z m1036 941 c94 -43 135 -166 86 -256 -16 -30 -64 -72 -95 -84 -64 -25
-141 -9 -191 37 -31 30 -65 95 -66 127 0 71 48 146 115 176 51 24 99 23 151 0z
m496 -458 c-2 -137 -7 -251 -11 -254 -3 -3 -46 -23 -96 -44 -112 -46 -366
-172 -383 -189 -10 -10 36 -54 229 -226 133 -118 246 -218 251 -221 5 -3 5
-114 1 -259 l-8 -253 -175 155 c-245 216 -413 375 -494 466 l-69 77 7 274 c5
218 9 279 21 297 41 63 157 150 310 234 84 46 392 188 411 189 7 1 9 -74 6
-246z"/>
</g>
</svg>
