<?xml version="1.0" encoding="UTF-8"?>
<svg version="1.1" xmlns="http://www.w3.org/2000/svg" width="320" height="320">
<path d="M0 0 C105.6 0 211.2 0 320 0 C320 105.6 320 211.2 320 320 C214.4 320 108.8 320 0 320 C0 214.4 0 108.8 0 0 Z " fill="#000000" transform="translate(0,0)"/>
<path d="M0 0 C0.02319531 7.99743882 0.04095173 15.99486352 0.05181217 23.99232769 C0.05702527 27.70607888 0.06409433 31.419807 0.07543945 35.13354492 C0.08632426 38.71914203 0.09228869 42.304717 0.09487724 45.89032936 C0.09672141 47.25662395 0.1003226 48.62291736 0.10573006 49.9892025 C0.11301462 51.90644519 0.11340869 53.82371027 0.11352539 55.7409668 C0.115746 56.83128708 0.11796661 57.92160736 0.12025452 59.04496765 C0.00645724 61.84132519 -0.2298246 64.30946838 -1 67 C-3.1953125 68.47875977 -3.1953125 68.47875977 -6.125 69.69140625 C-7.21232422 70.15530762 -8.29964844 70.61920898 -9.41992188 71.09716797 C-10.60134766 71.58072754 -11.78277344 72.06428711 -13 72.5625 C-15.47020024 73.61526954 -17.93881053 74.67129354 -20.40625 75.73046875 C-21.03680298 75.99885559 -21.66735596 76.26724243 -22.3170166 76.54376221 C-28.7960922 79.31044115 -35.15493337 82.31431882 -41.5 85.375 C-42.49386719 85.8501001 -43.48773438 86.3252002 -44.51171875 86.81469727 C-51.12512316 90.00481702 -57.58523897 93.42807331 -64 97 C-63.14576816 101.35432986 -61.12318258 103.21445655 -57.9375 106.3125 C-57.43871338 106.79960449 -56.93992676 107.28670898 -56.42602539 107.78857422 C-53.051232 111.05981973 -49.59039424 114.21111898 -46.01953125 117.265625 C-43.68881866 119.26724277 -41.40627892 121.31723675 -39.125 123.375 C-37.86429688 124.51195312 -37.86429688 124.51195312 -36.578125 125.671875 C-34.859375 127.22395833 -33.140625 128.77604167 -31.421875 130.328125 C-23.27222008 137.67781379 -15.00237602 144.87268931 -6.65917969 152.0012207 C-2.10322922 155.89677078 -2.10322922 155.89677078 -1 157 C-0.90180782 158.39801729 -0.87201655 159.8009319 -0.87060547 161.20239258 C-0.86745331 162.09875931 -0.86430115 162.99512604 -0.86105347 163.9186554 C-0.86408981 165.39171394 -0.86408981 165.39171394 -0.8671875 166.89453125 C-0.86623077 167.91109299 -0.86527405 168.92765472 -0.86428833 169.97502136 C-0.86360519 172.14488791 -0.86546871 174.31475647 -0.86962891 176.48461914 C-0.8748711 179.73263465 -0.86974396 182.98050508 -0.86328125 186.22851562 C-0.85955752 199.18301071 -1.20571474 212.06979583 -2 225 C-3.26068442 224.06844561 -4.51941383 223.13424522 -5.77734375 222.19897461 C-6.47851318 221.67903427 -7.17968262 221.15909393 -7.90209961 220.62339783 C-11.12224698 218.13158255 -14.05420013 215.36826184 -17 212.5625 C-18.2231738 211.41192581 -19.44712583 210.26217836 -20.671875 209.11328125 C-21.24873047 208.5713916 -21.82558594 208.02950195 -22.41992188 207.47119141 C-24.92019319 205.14321938 -27.4924962 202.90391354 -30.078125 200.671875 C-32.41105074 198.64241927 -34.70511245 196.572353 -37 194.5 C-39.93678465 191.84886006 -42.88602542 189.21709829 -45.875 186.625 C-53.26136741 180.18252944 -60.5137292 173.58672684 -67.37890625 166.58984375 C-69.0874296 164.91425579 -70.86677325 163.36514428 -72.6875 161.8125 C-81.07051086 154.57114431 -88.94724284 146.54044813 -96 138 C-96.68143066 137.34459229 -97.36286133 136.68918457 -98.06494141 136.01391602 C-100.84602028 131.6822962 -100.53758789 128.00573497 -100.4609375 122.9609375 C-100.46105835 121.48145126 -100.46105835 121.48145126 -100.46118164 119.97207642 C-100.45440587 116.77250235 -100.41672216 113.57429586 -100.375 110.375 C-100.35728403 108.18489824 -100.3398692 105.99479403 -100.32275391 103.8046875 C-100.20828956 92.20066195 -100.04157793 80.58703845 -99.375 69 C-99.33036621 67.96665527 -99.28573242 66.93331055 -99.23974609 65.86865234 C-98.72273922 59.01218423 -96.67888209 55.0045514 -92 50 C-91.33097656 49.28070313 -90.66195312 48.56140625 -89.97265625 47.8203125 C-69.37022235 29.53512577 -43.3914266 17.92436591 -18.55371094 6.62548828 C-16.27355528 5.58253167 -14.000045 4.52484938 -11.73535156 3.44873047 C-10.27693848 2.76061279 -10.27693848 2.76061279 -8.7890625 2.05859375 C-7.9532666 1.65825928 -7.1174707 1.2579248 -6.25634766 0.84545898 C-4 0 -4 0 0 0 Z " fill="#FDFDFD" transform="translate(204,63)"/>
<path d="M0 0 C0.33 0 0.66 0 1 0 C1 49.83 1 99.66 1 151 C-48.83 151 -98.66 151 -150 151 C-150 150.67 -150 150.34 -150 150 C-148.83726562 149.90203125 -147.67453125 149.8040625 -146.4765625 149.703125 C-114.67811601 146.83247849 -85.00000327 136.23333598 -60 116 C-59.20964355 115.36989014 -59.20964355 115.36989014 -58.40332031 114.72705078 C-26.45682495 89.16037482 -5.60586915 51.70928699 -1.02319336 10.98925781 C-0.64069938 7.32907414 -0.3089807 3.66711299 0 0 Z " fill="#FDFDFD" transform="translate(319,169)"/>
<path d="M0 0 C0.33 0 0.66 0 1 0 C1.09796875 1.16273438 1.1959375 2.32546875 1.296875 3.5234375 C4.16752151 35.32188399 14.76666402 64.99999673 35 90 C35.63010986 90.79035645 35.63010986 90.79035645 36.27294922 91.59667969 C63.19445002 125.23607817 101.89869256 144.76629956 144.45703125 149.73828125 C145.71580078 149.86783203 145.71580078 149.86783203 147 150 C147 150.33 147 150.66 147 151 C98.49 151 49.98 151 0 151 C0 101.17 0 51.34 0 0 Z " fill="#FDFDFD" transform="translate(0,169)"/>
<path d="M0 0 C49.83 0 99.66 0 151 0 C151 48.51 151 97.02 151 147 C150.67 147 150.34 147 150 147 C149.84144531 145.77667969 149.68289063 144.55335938 149.51953125 143.29296875 C145.39474447 112.89739976 135.46657511 85.05260516 116 61 C115.57992676 60.4730957 115.15985352 59.94619141 114.72705078 59.40332031 C89.16037482 27.45682495 51.70928699 6.60586915 10.98925781 2.02319336 C7.32907414 1.64069938 3.66711299 1.3089807 0 1 C0 0.67 0 0.34 0 0 Z " fill="#FDFDFD" transform="translate(169,0)"/>
<path d="M0 0 C47.85 0 95.7 0 145 0 C145 0.33 145 0.66 145 1 C144.1181604 1.15033691 144.1181604 1.15033691 143.21850586 1.30371094 C108.88784151 7.20905388 81.05628283 18.13830022 54.1875 40.625 C53.41466675 41.27154541 53.41466675 41.27154541 52.6262207 41.93115234 C21.24429697 68.66296922 6.17254856 107.09147496 1 147 C0.67 147 0.34 147 0 147 C0 98.49 0 49.98 0 0 Z " fill="#FDFDFD" transform="translate(0,0)"/>
<path d="M0 0 C5.70945664 3.53738074 9.89199725 8.7444077 11.96484375 15.13671875 C13.40206932 22.13280026 13.5344507 29.33886742 9.8359375 35.62109375 C5.63380113 41.07917591 1.13761014 44.67080429 -5.5625 46.4375 C-13.19644402 47.25203993 -20.30497151 47.27741906 -26.5625 42.4375 C-32.70098669 36.91429286 -36.64887383 29.73753736 -37.125 21.4375 C-36.8101227 14.88602059 -34.0911658 10.06130373 -29.58984375 5.390625 C-21.42694001 -1.99413277 -10.55393779 -4.77488836 0 0 Z " fill="#FCFCFC" transform="translate(139.5625,34.5625)"/>
</svg>
